<svg xmlns="http://www.w3.org/2000/svg" width="19.364" height="18.571" viewBox="0 0 19.364 18.571">
    <path id="路径_588" data-name="路径 588" d="M76.062,78.534l4.975,2.613a.181.181,0,0,0,.153,0,.111.111,0,0,0,0-.125l-.931-5.559L84.4,71.543a.139.139,0,0,0,0-.236L78.842,70.5l-2.613-5.045a.139.139,0,0,0-.264,0l-2.488,5.031-5.559.806a.139.139,0,0,0,0,.236l3.975,3.933-.959,5.559a.153.153,0,0,0,0,.125.181.181,0,0,0,.153,0Zm-4.28,3.836a1.543,1.543,0,0,1-2.14-.778,1.584,1.584,0,0,1-.1-.834l.82-4.809-3.488-3.4a1.39,1.39,0,0,1-.431-.737,1.542,1.542,0,0,1,0-.848,1.5,1.5,0,0,1,.473-.695,1.529,1.529,0,0,1,.806-.334l4.836-.695,2.112-4.392a1.39,1.39,0,0,1,.57-.625,1.6,1.6,0,0,1,1.626,0,1.39,1.39,0,0,1,.584.625l2.154,4.378,4.836.695a1.584,1.584,0,0,1,.778.334,1.39,1.39,0,0,1,.473.695,1.612,1.612,0,0,1,0,.848,1.39,1.39,0,0,1-.431.737L81.83,75.949l.834,4.822a1.555,1.555,0,0,1-1.4,1.793,1.64,1.64,0,0,1-.834-.167L76.062,80.1Z" transform="translate(-66.386 -63.997)" fill="#334856"/>
  </svg>
  